<svg xmlns="http://www.w3.org/2000/svg" viewBox="0 0 1200 630" width="1200" height="630">
  <defs>
    <linearGradient id="bg-grad" x1="0%" y1="0%" x2="100%" y2="100%">
      <stop offset="0%" stop-color="#09090b" />
      <stop offset="100%" stop-color="#18181b" />
    </linearGradient>

    <linearGradient id="emerald-grad" x1="0%" y1="0%" x2="100%" y2="0%">
      <stop offset="0%" stop-color="#34d399" />
      <stop offset="100%" stop-color="#059669" />
    </linearGradient>

    <pattern id="grid" width="40" height="40" patternUnits="userSpaceOnUse">
      <path d="M 40 0 L 0 0 0 40" fill="none" stroke="rgba(255, 255, 255, 0.03)" stroke-width="1" />
    </pattern>

    <filter id="glow" x="-20%" y="-20%" width="140%" height="140%">
      <feGaussianBlur stdDeviation="80" result="blur" />
    </filter>

    <filter id="shadow" x="-10%" y="-10%" width="120%" height="120%">
      <feDropShadow dx="0" dy="20" stdDeviation="30" flood-color="#000" flood-opacity="0.5"/>
    </filter>
  </defs>

  <rect width="1200" height="630" fill="url(#bg-grad)" />
  <rect width="1200" height="630" fill="url(#grid)" />

  <circle cx="200" cy="315" r="250" fill="#10b981" opacity="0.15" filter="url(#glow)" />
  <circle cx="1000" cy="150" r="300" fill="#059669" opacity="0.1" filter="url(#glow)" />

  <g transform="translate(100, 220)">
    <rect x="0" y="-60" width="48" height="48" rx="12" fill="#059669" />
    <path d="M16 36L22 12M22 24l6 6-6 6M14 18l-6-6 6-6" stroke="#ffffff" stroke-width="3" stroke-linecap="round" stroke-linejoin="round" transform="translate(3, -55) scale(0.9)" />

    <text x="65" y="-23" font-family="system-ui, -apple-system, sans-serif" font-size="48" font-weight="800" fill="#ffffff">
      Dev<tspan fill="#10b981">Arena</tspan>
    </text>

    <text x="0" y="45" font-family="system-ui, -apple-system, sans-serif" font-size="64" font-weight="800" fill="#ffffff" letter-spacing="-1">
      Level Up Your Code
    </text>

    <text x="0" y="95" font-family="system-ui, -apple-system, sans-serif" font-size="28" font-weight="500" fill="#a1a1aa">
      Peer Reviews <tspan fill="#3f3f46">|</tspan> Coding Battles <tspan fill="#3f3f46">|</tspan> Community
    </text>

    <g transform="translate(0, 140)">
      <rect x="0" y="0" width="100" height="36" rx="8" fill="rgba(16, 185, 129, 0.1)" stroke="rgba(16, 185, 129, 0.3)" stroke-width="1"/>
      <text x="50" y="23" font-family="monospace" font-size="16" font-weight="600" fill="#34d399" text-anchor="middle">Python</text>

      <rect x="115" y="0" width="130" height="36" rx="8" fill="rgba(255, 255, 255, 0.05)" stroke="rgba(255, 255, 255, 0.1)" stroke-width="1"/>
      <text x="180" y="23" font-family="monospace" font-size="16" font-weight="600" fill="#d4d4d8" text-anchor="middle">JavaScript</text>

      <rect x="260" y="0" width="80" height="36" rx="8" fill="rgba(255, 255, 255, 0.05)" stroke="rgba(255, 255, 255, 0.1)" stroke-width="1"/>
      <text x="300" y="23" font-family="monospace" font-size="16" font-weight="600" fill="#d4d4d8" text-anchor="middle">Rust</text>
    </g>
  </g>

  <g transform="translate(680, 140)" filter="url(#shadow)">
    <rect x="0" y="0" width="420" height="350" rx="16" fill="#0d0d0f" stroke="#27272a" stroke-width="2" />

    <rect x="0" y="0" width="420" height="48" rx="16" fill="#18181b" />
    <path d="M0 48 L420 48" stroke="#27272a" stroke-width="2" />

    <circle cx="24" cy="24" r="6" fill="#ef4444" />
    <circle cx="44" cy="24" r="6" fill="#eab308" />
    <circle cx="64" cy="24" r="6" fill="#22c55e" />

    <text x="210" y="29" font-family="monospace" font-size="14" fill="#71717a" text-anchor="middle">solution.py</text>

    <g transform="translate(30, 80)">
      <rect x="0" y="0" width="40" height="12" rx="4" fill="#c084fc" />
      <rect x="50" y="0" width="120" height="12" rx="4" fill="#34d399" />
      <rect x="180" y="0" width="80" height="12" rx="4" fill="#d4d4d8" />

      <rect x="20" y="30" width="80" height="12" rx="4" fill="#60a5fa" />
      <rect x="110" y="30" width="20" height="12" rx="4" fill="#fb923c" />
      <rect x="140" y="30" width="60" height="12" rx="4" fill="#34d399" />

      <rect x="20" y="60" width="45" height="12" rx="4" fill="#c084fc" />
      <rect x="75" y="60" width="100" height="12" rx="4" fill="#d4d4d8" />

      <rect x="40" y="90" width="30" height="12" rx="4" fill="#60a5fa" />
      <rect x="80" y="90" width="110" height="12" rx="4" fill="#d4d4d8" />
      <rect x="200" y="90" width="20" height="12" rx="4" fill="#fb923c" />

      <rect x="40" y="120" width="20" height="12" rx="4" fill="#c084fc" />
      <rect x="70" y="120" width="140" height="12" rx="4" fill="#d4d4d8" />

      <rect x="60" y="150" width="50" height="12" rx="4" fill="#c084fc" />
      <rect x="120" y="150" width="40" height="12" rx="4" fill="#60a5fa" />

      <rect x="40" y="180" width="35" height="12" rx="4" fill="#c084fc" />

      <rect x="60" y="210" width="90" height="12" rx="4" fill="#d4d4d8" />
    </g>

    <g transform="translate(280, 240)" filter="url(#shadow)">
      <rect x="0" y="0" width="160" height="50" rx="25" fill="#18181b" stroke="#3f3f46" stroke-width="1.5" />
      <circle cx="25" cy="25" r="12" fill="#10b981" />
      <path d="M20 25l3 3 6-6" stroke="#ffffff" stroke-width="2.5" stroke-linecap="round" stroke-linejoin="round" fill="none" />
      <text x="45" y="30" font-family="system-ui, sans-serif" font-size="14" font-weight="600" fill="#e4e4e7">Code Approved</text>
    </g>
  </g>
</svg>
